<svg xmlns="http://www.w3.org/2000/svg" xmlns:xlink="http://www.w3.org/1999/xlink" width="336" zoomAndPan="magnify" viewBox="0 0 252 86.249997" height="115" preserveAspectRatio="xMidYMid meet" version="1.0"><defs><g/><clipPath id="bef3bb558d"><path d="M 1.085938 0 L 250.914062 0 L 250.914062 85.507812 L 1.085938 85.507812 Z M 1.085938 0 " clip-rule="nonzero"/></clipPath><clipPath id="4d35b0242e"><path d="M 0.0859375 0 L 249.914062 0 L 249.914062 85.507812 L 0.0859375 85.507812 Z M 0.0859375 0 " clip-rule="nonzero"/></clipPath><clipPath id="39f5af05d8"><path d="M 13 9 L 45.832031 9 L 45.832031 79 L 13 79 Z M 13 9 " clip-rule="nonzero"/></clipPath><clipPath id="0a30604a41"><path d="M 0.09375 0 L 39 0 L 39 85.507812 L 0.09375 85.507812 Z M 0.09375 0 " clip-rule="nonzero"/></clipPath><clipPath id="39c7240ac3"><rect x="0" width="150" y="0" height="47"/></clipPath><clipPath id="e66c145344"><path d="M 200 24 L 249.914062 24 L 249.914062 59 L 200 59 Z M 200 24 " clip-rule="nonzero"/></clipPath><clipPath id="a653aa4062"><path d="M 0.1875 16 L 11 16 L 11 29 L 0.1875 29 Z M 0.1875 16 " clip-rule="nonzero"/></clipPath><clipPath id="ea8a4d7f51"><path d="M 38 19 L 49.914062 19 L 49.914062 29 L 38 29 Z M 38 19 " clip-rule="nonzero"/></clipPath><clipPath id="a1e61c71c9"><rect x="0" width="50" y="0" height="35"/></clipPath><clipPath id="696f2990f2"><rect x="0" width="250" y="0" height="86"/></clipPath><clipPath id="c5838f324d"><rect x="0" width="250" y="0" height="86"/></clipPath></defs><g clip-path="url(#bef3bb558d)"><g transform="matrix(1, 0, 0, 1, 1, 0)"><g clip-path="url(#c5838f324d)"><g clip-path="url(#4d35b0242e)"><g transform="matrix(1, 0, 0, 1, 0.000000000000000222, 0)"><g clip-path="url(#696f2990f2)"><g clip-path="url(#39f5af05d8)"><path fill="#ffbb00" d="M 38.699219 9.519531 L 22.058594 36.875 L 35.011719 39.515625 L 20.121094 61.554688 L 13.097656 77.390625 C 12.804688 78.046875 13.6875 78.582031 14.132812 78.019531 L 45.46875 38.476562 C 45.828125 38.023438 45.503906 37.351562 44.925781 37.351562 L 31.851562 37.359375 L 39.652344 9.933594 C 39.816406 9.347656 39.015625 8.996094 38.699219 9.519531 Z M 38.699219 9.519531 " fill-opacity="1" fill-rule="nonzero"/></g><g clip-path="url(#0a30604a41)"><path fill="#202020" d="M 3.601562 85.582031 C 3.390625 85.582031 3.191406 85.53125 2.996094 85.433594 C 2.449219 85.132812 2.195312 84.464844 2.421875 83.875 L 14.996094 50.90625 C 15.25 50.257812 15.964844 49.9375 16.625 50.183594 C 17.269531 50.429688 17.59375 51.152344 17.355469 51.804688 L 8.160156 75.894531 L 34.179688 40.03125 L 22.113281 40.039062 C 21.691406 40.039062 21.296875 39.835938 21.074219 39.484375 C 20.835938 39.140625 20.792969 38.699219 20.945312 38.304688 L 32.132812 10.808594 L 2.546875 52.097656 C 2.140625 52.667969 1.367188 52.800781 0.792969 52.394531 C 0.230469 51.988281 0.0898438 51.199219 0.5 50.636719 L 36.273438 0.703125 C 36.652344 0.179688 37.367188 0.0273438 37.898438 0.328125 C 38.460938 0.636719 38.699219 1.3125 38.460938 1.910156 L 23.976562 37.527344 L 36.652344 37.511719 C 37.128906 37.511719 37.5625 37.777344 37.773438 38.199219 C 37.984375 38.621094 37.941406 39.125 37.675781 39.507812 L 4.609375 85.0625 C 4.371094 85.398438 3.992188 85.582031 3.601562 85.582031 Z M 3.601562 85.582031 " fill-opacity="1" fill-rule="nonzero"/></g><g transform="matrix(1, 0, 0, 1, 51, 19)"><g clip-path="url(#39c7240ac3)"><g fill="#000000" fill-opacity="1"><g transform="translate(0.994968, 33.785574)"><g><path d="M 10.015625 -9.765625 L 10.015625 0 L 2.09375 0 L 2.09375 -23.765625 L 10.015625 -23.765625 L 10.015625 -14.34375 L 17.59375 -14.34375 L 17.59375 -9.765625 Z M 11.265625 -19.171875 L 11.265625 -23.765625 L 23.640625 -23.765625 L 23.640625 -16.890625 L 16.1875 -16.890625 L 16.1875 -19.171875 Z M 11.265625 0 L 11.265625 -4.75 L 15.734375 -4.75 L 15.734375 -7.125 L 23.640625 -7.125 L 23.640625 0 Z M 11.265625 0 "/></g></g><g transform="translate(26.344535, 33.785574)"><g><path d="M 2.09375 0 L 2.09375 -23.765625 L 10.015625 -23.765625 L 10.015625 0 Z M 11.265625 0 L 11.265625 -4.75 L 15.1875 -4.75 L 15.1875 -7.75 L 22.375 -7.75 L 22.375 0 Z M 11.265625 0 "/></g></g><g transform="translate(49.042699, 33.785574)"><g><path d="M 10.015625 -9.765625 L 10.015625 0 L 2.09375 0 L 2.09375 -23.765625 L 10.015625 -23.765625 L 10.015625 -14.34375 L 17.59375 -14.34375 L 17.59375 -9.765625 Z M 11.265625 -19.171875 L 11.265625 -23.765625 L 23.640625 -23.765625 L 23.640625 -16.890625 L 16.1875 -16.890625 L 16.1875 -19.171875 Z M 11.265625 0 L 11.265625 -4.75 L 15.734375 -4.75 L 15.734375 -7.125 L 23.640625 -7.125 L 23.640625 0 Z M 11.265625 0 "/></g></g><g transform="translate(74.392267, 33.785574)"><g><path d="M 9.65625 0 L 6.5 0 L 1.734375 -4.75 L 1.734375 -19.03125 L 6.5 -23.765625 L 9.65625 -23.765625 Z M 10.90625 -19.03125 L 10.90625 -23.765625 L 19.34375 -23.765625 L 24.09375 -19.03125 L 24.09375 -14.234375 L 16.171875 -14.234375 L 16.171875 -19.03125 Z M 10.90625 0 L 10.90625 -4.75 L 16.171875 -4.75 L 16.171875 -8.21875 L 24.09375 -8.21875 L 24.09375 -4.75 L 19.34375 0 Z M 10.90625 0 "/></g></g><g transform="translate(100.189707, 33.785574)"><g><path d="M 7.125 -17.359375 L 15.375 -17.359375 L 15.375 0 L 7.125 0 Z M 0.9375 -23.765625 L 21.5625 -23.765625 L 21.5625 -18.59375 L 0.9375 -18.59375 Z M 0.9375 -23.765625 "/></g></g><g transform="translate(122.690807, 33.785574)"><g><path d="M 2.09375 0 L 2.09375 -23.765625 L 10.015625 -23.765625 L 10.015625 0 Z M 11.265625 -19.03125 L 11.265625 -23.765625 L 20.3125 -23.765625 L 25.078125 -19.03125 L 25.078125 -11.890625 L 21.421875 -8.234375 L 21.171875 -8.734375 L 13.734375 -7.75 L 14.03125 -7.125 L 11.265625 -7.125 L 11.265625 -11.734375 L 17.21875 -11.734375 L 17.21875 -19.03125 Z M 25.890625 0 L 17.4375 0 L 14.03125 -7.125 L 20.3125 -7.125 L 21.421875 -8.234375 Z M 25.890625 0 "/></g></g></g></g></g><g clip-path="url(#e66c145344)"><g transform="matrix(1, 0, 0, 1, 200, 24)"><g clip-path="url(#a1e61c71c9)"><g fill="#000000" fill-opacity="1"><g transform="translate(0.358037, 14.606183)"><g><path d="M 0.703125 -2.03125 L 1.65625 -2.03125 L 1.65625 -7.515625 L 0.703125 -7.515625 L 0.703125 -9.53125 L 5.78125 -9.53125 L 5.78125 -7.515625 L 4.828125 -7.515625 L 4.828125 -2.03125 L 5.78125 -2.03125 L 5.78125 0 L 0.703125 0 Z M 0.703125 -2.03125 "/></g></g></g><g fill="#000000" fill-opacity="1"><g transform="translate(6.841135, 14.606183)"><g><path d="M 3.875 0 L 2.609375 0 L 0.703125 -1.90625 L 0.703125 -7.625 L 2.609375 -9.53125 L 3.875 -9.53125 Z M 4.375 -7.625 L 4.375 -9.53125 L 7.765625 -9.53125 L 9.671875 -7.625 L 9.671875 -5.71875 L 6.484375 -5.71875 L 6.484375 -7.625 Z M 4.375 0 L 4.375 -1.90625 L 6.484375 -1.90625 L 6.484375 -3.296875 L 9.671875 -3.296875 L 9.671875 -1.90625 L 7.765625 0 Z M 4.375 0 "/></g></g></g><g fill="#000000" fill-opacity="1"><g transform="translate(17.191092, 14.606183)"><g><path d="M 7.09375 -1.046875 L 3.984375 -1.046875 L 4.640625 -2.9375 L 6.375 -2.9375 L 3.8125 -9.53125 L 6.90625 -9.53125 L 10.71875 0 L 7.5 0 Z M 3.140625 0 L 0.0625 0 L 3.46875 -9.109375 L 4.875 -5.3125 Z M 3.140625 0 "/></g></g></g><g clip-path="url(#a653aa4062)"><g fill="#000000" fill-opacity="1"><g transform="translate(0.358037, 28.828347)"><g><path d="M 3.796875 -1.9375 L 5 -1.9375 L 5 0 L 2.546875 0 L 0.625 -1.90625 L 0.625 -7.625 L 2.546875 -9.53125 L 5 -9.53125 L 5 -7.609375 L 3.796875 -7.609375 Z M 6.71875 -7.609375 L 5.5 -7.609375 L 5.5 -9.53125 L 7.96875 -9.53125 L 9.890625 -7.625 L 9.890625 -1.90625 L 7.96875 0 L 5.5 0 L 5.5 -1.9375 L 6.71875 -1.9375 Z M 7.3125 -12.703125 L 8.421875 -12.140625 L 8.078125 -10.921875 L 4.46875 -10.09375 L 4.109375 -10.96875 Z M 7.3125 -12.703125 "/></g></g></g></g><g fill="#000000" fill-opacity="1"><g transform="translate(10.873306, 28.828347)"><g><path d="M 10 0 L 6.625 0 L 0.84375 -9.53125 L 4.203125 -9.53125 Z M 0.84375 0 L 0.84375 -8.625 L 3.609375 -4.09375 L 3.609375 0 Z M 10 -9.53125 L 10 -0.90625 L 7.234375 -5.46875 L 7.234375 -9.53125 Z M 10 -9.53125 "/></g></g></g><g fill="#000000" fill-opacity="1"><g transform="translate(21.712011, 28.828347)"><g><path d="M 0.703125 -2.03125 L 1.65625 -2.03125 L 1.65625 -7.515625 L 0.703125 -7.515625 L 0.703125 -9.53125 L 5.78125 -9.53125 L 5.78125 -7.515625 L 4.828125 -7.515625 L 4.828125 -2.03125 L 5.78125 -2.03125 L 5.78125 0 L 0.703125 0 Z M 0.703125 -2.03125 "/></g></g></g><g fill="#000000" fill-opacity="1"><g transform="translate(28.19511, 28.828347)"><g><path d="M 3.875 0 L 2.609375 0 L 0.703125 -1.90625 L 0.703125 -7.625 L 2.609375 -9.53125 L 3.875 -9.53125 Z M 4.375 -7.625 L 4.375 -9.53125 L 7.765625 -9.53125 L 9.671875 -7.625 L 9.671875 -5.71875 L 6.484375 -5.71875 L 6.484375 -7.625 Z M 4.375 0 L 4.375 -1.90625 L 6.484375 -1.90625 L 6.484375 -3.296875 L 9.671875 -3.296875 L 9.671875 -1.90625 L 7.765625 0 Z M 4.375 0 "/></g></g></g><g clip-path="url(#ea8a4d7f51)"><g fill="#000000" fill-opacity="1"><g transform="translate(38.545067, 28.828347)"><g><path d="M 7.09375 -1.046875 L 3.984375 -1.046875 L 4.640625 -2.9375 L 6.375 -2.9375 L 3.8125 -9.53125 L 6.90625 -9.53125 L 10.71875 0 L 7.5 0 Z M 3.140625 0 L 0.0625 0 L 3.46875 -9.109375 L 4.875 -5.3125 Z M 3.140625 0 "/></g></g></g></g></g></g></g></g></g></g></g></g></g></svg>